<svg xmlns="http://www.w3.org/2000/svg" viewBox="-24 -24 248 248" width="248" height="248">
  <path d="M 66.6667 0 H 165 A 35 35 0 0 1 200 35 V 50 H 33.3333 Z" fill="#FFDF8F"/>
  <path d="M 33.3333 50 H 200 V 100 H 0 Z" fill="#FACE73"/>
  <path d="M 0 100 H 200 V 150 H 0 Z" fill="#F2B447"/>
  <path d="M 0 150 H 200 V 165 A 35 35 0 0 1 165 200 H 35 A 35 35 0 0 1 0 165 Z" fill="#E78C06"/>
  <line x1="66.6667" y1="0" x2="0" y2="100" stroke="#7e6f5c" stroke-width="8" stroke-linecap="round"/>
  <line x1="66.6667" y1="0" x2="125" y2="80" stroke="#7e6f5c" stroke-width="8" stroke-linecap="round"/>
  <line x1="0" y1="100" x2="125" y2="80" stroke="#7e6f5c" stroke-width="8" stroke-linecap="round"/>
  <circle cx="66.6667" cy="0" r="14" fill="#000"/>
  <circle cx="0" cy="100" r="14" fill="#000"/>
  <circle cx="125" cy="80" r="14" fill="#000"/>
</svg>
